<svg width="50" height="49" viewBox="0 0 50 49" fill="none" xmlns="http://www.w3.org/2000/svg">
<g clip-path="url(#clip0)">
<path d="M14.0625 22.9441L1.66738 17.0332C1.48057 16.9453 1.31348 16.822 1.17585 16.6703C1.03822 16.5186 0.9328 16.3416 0.865719 16.1496C0.798637 15.9576 0.77124 15.7545 0.785122 15.5521C0.799004 15.3496 0.853886 15.1519 0.946576 14.9705L1.12949 14.6123C1.30968 14.2595 1.62213 13.9885 2.0016 13.8559C2.38106 13.7232 2.79821 13.7392 3.16591 13.9005L15.332 19.3113L14.0625 22.9441Z" fill="#D38F29"/>
<path d="M14.4531 22.9441C13.3744 22.9441 12.5 22.088 12.5 21.0321C12.5 19.9761 13.3744 19.1201 14.4531 19.1201C15.5318 19.1201 16.4062 19.9761 16.4062 21.0321C16.4062 22.088 15.5318 22.9441 14.4531 22.9441Z" fill="#AA6B17"/>
<path d="M16.6776 23.6761C14.1262 30.8572 19.3262 39.1533 28.291 42.2061C37.2559 45.2589 46.5933 41.9123 49.1447 34.7316L16.6776 23.6761Z" fill="#CCCCCC"/>
<path d="M41.4063 27.7274C39.9805 27.0236 38.405 26.3355 36.7188 25.6893C35.9831 25.4074 35.2272 25.1341 34.4512 24.8695C25.4856 21.8167 17.5282 21.2824 16.6777 23.6761C15.8272 26.0697 22.4058 30.485 31.3713 33.5378C40.3368 36.5906 48.2942 37.1249 49.1447 34.7316C49.4321 33.9226 48.8713 32.8828 47.6563 31.7428" fill="#A0A09D"/>
<path d="M33.9668 34.3607C37.1797 35.3042 40.1738 35.8989 42.6435 36.1254C47.2773 35.3186 48.4902 29.6562 48.501 27.9526C48.5019 27.7972 48.4715 27.6433 48.4113 27.4995C48.3512 27.3558 48.2627 27.2251 48.1508 27.115C48.0388 27.0049 47.9058 26.9176 47.7592 26.858C47.6127 26.7985 47.4555 26.7679 47.2969 26.7681C46.9778 26.7679 46.6719 26.6438 46.4463 26.423C46.2207 26.2021 46.0939 25.9026 46.0937 25.5903V20.1812C46.0937 19.9415 46.0455 19.7042 45.9518 19.4828C45.8581 19.2614 45.7208 19.0602 45.5477 18.8907C45.3746 18.7213 45.1691 18.5868 44.9429 18.4951C44.7167 18.4034 44.4743 18.3562 44.2295 18.3562C43.9847 18.3562 43.7422 18.4034 43.5161 18.4951C43.2899 18.5868 43.0844 18.7213 42.9113 18.8907C42.7381 19.0602 42.6008 19.2614 42.5071 19.4828C42.4134 19.7042 42.3652 19.9415 42.3652 20.1812C42.3652 20.2118 42.3652 20.2424 42.3672 20.273C42.5674 24.2729 42.4434 33.1379 33.9844 34.3205L33.9668 34.3607Z" fill="#D38F29"/>
<path d="M42.9688 13.7664C42.1058 13.7664 41.4063 13.0816 41.4063 12.2368C41.4063 11.392 42.1058 10.7072 42.9688 10.7072C43.8317 10.7072 44.5312 11.392 44.5312 12.2368C44.5312 13.0816 43.8317 13.7664 42.9688 13.7664Z" fill="#AA6F21"/>
<path d="M37.5 8.41285C36.6371 8.41285 35.9375 7.72802 35.9375 6.88324C35.9375 6.03847 36.6371 5.35364 37.5 5.35364C38.3629 5.35364 39.0625 6.03847 39.0625 6.88324C39.0625 7.72802 38.3629 8.41285 37.5 8.41285Z" fill="#FFDA79"/>
<path d="M19.6387 26.1811C19.7393 27.0195 19.9346 27.9277 20.3125 28.2977L20.3047 28.334C21.7617 29.3159 23.5918 30.3235 25.6904 31.2862C25.2344 30.9124 23.2021 29.0855 22.7471 25.8054C22.6973 25.4375 22.5128 25.0998 22.228 24.8549C21.9432 24.61 21.5773 24.4746 21.1982 24.4737H21.1904C20.9699 24.4737 20.7519 24.5194 20.5507 24.6078C20.3496 24.6962 20.1698 24.8253 20.0232 24.9866C19.8766 25.1478 19.7666 25.3377 19.7003 25.5435C19.634 25.7494 19.613 25.9667 19.6387 26.1811Z" fill="#D38F29"/>
<path opacity="0.3" d="M46.0937 29.0626C43.395 27.1977 44.0511 20.7225 44.3913 18.3633C44.8559 18.403 45.2885 18.6117 45.6036 18.9482C45.9188 19.2848 46.0937 19.7247 46.0937 20.1813V25.5903C46.0939 25.9027 46.2207 26.2022 46.4463 26.423C46.6719 26.6439 46.9778 26.768 47.2969 26.7681C47.4555 26.768 47.6127 26.7985 47.7592 26.8581C47.9058 26.9176 48.0388 27.005 48.1508 27.1151C48.2627 27.2252 48.3512 27.3558 48.4113 27.4996C48.4715 27.6433 48.5019 27.7973 48.501 27.9526C48.4959 28.7594 48.2209 30.4538 47.441 32.1C47.5805 31.0181 47.3059 29.9002 46.0937 29.0626Z" fill="white"/>
<path opacity="0.3" d="M42.0377 11.0106C42.2063 10.8871 42.3987 10.7983 42.6033 10.7494C42.8079 10.7006 43.0204 10.6928 43.2282 10.7265C43.4359 10.7602 43.6346 10.8347 43.8122 10.9455C43.9897 11.0563 44.1426 11.2011 44.2615 11.3713C44.3804 11.5414 44.4629 11.7334 44.504 11.9356C44.5451 12.1378 44.5441 12.346 44.5008 12.5478C44.4576 12.7495 44.3731 12.9406 44.2525 13.1096C44.1318 13.2786 43.9775 13.4219 43.7988 13.5309C43.9811 12.1065 42.9047 11.369 42.0377 11.0106Z" fill="white"/>
<path opacity="0.3" d="M36.569 5.657C36.7376 5.53347 36.9299 5.44462 37.1345 5.39579C37.3391 5.34695 37.5517 5.33915 37.7594 5.37284C37.9672 5.40654 38.1658 5.48104 38.3434 5.59185C38.521 5.70267 38.6738 5.84751 38.7927 6.01766C38.9116 6.18781 38.9941 6.37975 39.0353 6.58193C39.0764 6.78411 39.0753 6.99235 39.0321 7.19412C38.9889 7.39588 38.9044 7.587 38.7838 7.75596C38.6631 7.92493 38.5088 8.06826 38.3301 8.17731C38.5124 6.75287 37.4359 6.0154 36.569 5.657Z" fill="white"/>
<path opacity="0.3" d="M24.119 29.486C21.4999 28.4775 20.5635 25.9904 20.2554 24.7779C20.5251 24.5798 20.8533 24.4731 21.1904 24.4738H21.1982C21.5773 24.4746 21.9432 24.6101 22.228 24.855C22.5128 25.0999 22.6973 25.4376 22.7471 25.8055C22.9252 27.1155 23.3934 28.3716 24.119 29.486Z" fill="white"/>
<path d="M1.05234 14.7634L1.12949 14.6122C1.30969 14.2594 1.62214 13.9884 2.0016 13.8557C2.38107 13.7231 2.79821 13.7391 3.16592 13.9004L14.6248 18.9967C7.67959 18.3784 3.01592 15.9767 1.05234 14.7634Z" fill="#EFB66A"/>
<path opacity="0.3" d="M38.4733 35.4887C44.2063 36.6613 48.53 36.4605 49.1446 34.7316C46.5931 41.9124 37.2568 45.2588 28.291 42.2061C26.3331 41.5438 24.4886 40.5957 22.82 39.3938C33.1738 41.0875 37.1434 37.4101 38.4733 35.4887Z" fill="white"/>
<path d="M41.3919 43.0245C39.3457 43.7482 37.1854 44.1139 35.0097 44.1048C32.634 44.0969 30.2763 43.6994 28.0347 42.9289C23.5288 41.3947 19.7873 38.5396 17.4998 34.8896C15.1814 31.1906 14.6274 27.1191 15.9398 23.4253C15.9652 23.355 15.9946 23.2861 16.0277 23.2188C15.6984 23.4471 15.3214 23.6008 14.9239 23.6691C14.5265 23.7373 14.1185 23.7182 13.7295 23.6133L1.32895 17.7228C1.04874 17.591 0.798111 17.4059 0.591667 17.1784C0.385223 16.9508 0.227081 16.6853 0.126457 16.3974C0.0258293 16.1094 -0.015274 15.8048 0.00554276 15.5011C0.0263557 15.1974 0.108673 14.9009 0.2477 14.6287L0.43071 14.2705C0.700665 13.7397 1.17033 13.3321 1.74095 13.1334C2.31157 12.9347 2.93866 12.9603 3.49038 13.2049L15.1682 18.4247C15.7501 18.5827 16.2628 18.9235 16.6276 19.3945C16.9924 19.8656 17.1891 20.4409 17.1874 21.0321C17.1876 21.3356 17.1347 21.6368 17.0312 21.9229L17.261 22.0729C20.3265 20.572 27.7613 21.782 34.7078 24.1474C35.1159 24.2863 35.5228 24.4296 35.9285 24.577C36.6961 21.7929 34.7095 19.7664 34.6014 19.6591L35.7082 18.5795C36.4653 19.381 37.0315 20.3367 37.3663 21.3779C37.7617 22.5975 37.7726 23.9054 37.3977 25.1311C38.6477 25.6197 39.8489 26.1363 40.9855 26.6731C41.6159 24.3823 41.6718 22.0187 41.586 20.3107C41.5691 19.9659 41.6228 19.6214 41.7439 19.2972C41.865 18.9731 42.0511 18.6759 42.2911 18.4232C42.5312 18.1704 42.8204 17.9672 43.1418 17.8254C43.4633 17.6836 43.8104 17.6061 44.1628 17.5975C44.5153 17.5888 44.8659 17.6492 45.1942 17.7751C45.5224 17.901 45.8217 18.0899 46.0743 18.3306C46.327 18.5713 46.528 18.859 46.6655 19.1768C46.8029 19.4946 46.8742 19.8361 46.8749 20.1812V25.5903C46.8752 25.6998 46.9198 25.8048 46.9989 25.8822C47.0781 25.9597 47.1854 26.0032 47.2973 26.0033C47.5589 26.0032 47.818 26.0538 48.0596 26.1521C48.3012 26.2504 48.5206 26.3945 48.705 26.5761C48.8895 26.7577 49.0355 26.9732 49.1346 27.2103C49.2336 27.4473 49.2838 27.7012 49.2823 27.9574C49.2476 29.1983 49.0217 30.427 48.6122 31.6018C49.8077 32.8547 50.2352 33.9903 49.8828 34.9826C48.5702 38.6764 45.5547 41.5324 41.3919 43.0245ZM28.548 41.4838C32.7142 42.9024 37.0847 42.9396 40.8547 41.5882C43.6403 40.5898 45.845 38.9204 47.261 36.7762C46.4441 36.9327 45.6128 37.0059 44.7805 36.9947C44.3019 36.9947 43.7909 36.9765 43.2473 36.9401C40.5537 36.7592 37.3119 36.13 33.9097 35.1412C33.8413 35.152 31.9785 34.5546 31.1142 34.2603C29.1429 33.5924 27.2082 32.825 25.3179 31.9612L25.2781 31.943C23.2342 31.0015 21.4052 30.0001 19.9013 28.9906C18.5557 28.0875 17.5422 27.2329 16.8607 26.4267C16.2729 32.5343 21.0389 38.9269 28.548 41.4838ZM20.4145 26.0921C20.5791 27.463 20.8534 27.7454 20.8649 27.7568L20.8498 27.7716C21.4965 28.2028 22.2059 28.6328 22.9689 29.0571C22.4591 28.0693 22.1223 27.0047 21.9726 25.9077C21.9468 25.7225 21.8534 25.5526 21.7096 25.4296C21.5659 25.3066 21.3814 25.2387 21.1905 25.2385C21.0802 25.2385 20.9711 25.2613 20.8705 25.3055C20.7699 25.3497 20.68 25.4142 20.6066 25.4949C20.5333 25.5755 20.4783 25.6704 20.4451 25.7734C20.412 25.8764 20.4015 25.9851 20.4143 26.0923L20.4145 26.0921ZM2.84643 14.5982C2.66266 14.5171 2.45393 14.5088 2.26408 14.5752C2.07423 14.6415 1.91803 14.7773 1.82826 14.954L1.64526 15.3122C1.59875 15.4033 1.57129 15.5025 1.56446 15.604C1.55763 15.7056 1.57158 15.8075 1.6055 15.9037C1.63942 15.9999 1.69261 16.0886 1.76197 16.1644C1.83133 16.2402 1.91545 16.3018 2.00942 16.3454L11.7201 20.9761C11.728 20.598 11.8179 20.2258 11.9837 19.8842C12.1496 19.5426 12.3877 19.2393 12.6823 18.9945L2.84643 14.5982ZM14.4531 19.8849C14.2086 19.8846 13.9702 19.9592 13.7713 20.0984C13.5723 20.2375 13.4229 20.4341 13.3439 20.6606C13.2649 20.8871 13.2604 21.1321 13.3309 21.3612C13.4014 21.5904 13.5434 21.7922 13.7371 21.9383L14.1667 22.1433C14.3057 22.1792 14.4505 22.1884 14.593 22.1703L14.41 22.0509C14.3235 21.9957 14.2491 21.9242 14.191 21.8406C14.1329 21.7571 14.0924 21.6631 14.0716 21.5641C14.0509 21.4651 14.0504 21.363 14.0702 21.2638C14.0899 21.1646 14.1296 21.0702 14.1869 20.9861C14.2442 20.902 14.3179 20.8299 14.4038 20.7739C14.4898 20.7178 14.5862 20.679 14.6875 20.6597C14.7889 20.6404 14.8931 20.6409 14.9942 20.6612C15.0954 20.6816 15.1914 20.7214 15.2767 20.7783L15.6232 21.0044C15.6156 20.7053 15.4891 20.4209 15.2705 20.2118C15.052 20.0027 14.7587 19.8854 14.4531 19.8849ZM35.7564 28.0226L34.556 27.0433C34.8397 26.7125 35.0945 26.3589 35.3177 25.9863C34.945 25.8516 34.5697 25.7198 34.1947 25.592C29.9222 24.1373 25.7572 23.2143 22.4679 22.9935C20.9373 22.8908 19.6472 22.9507 18.7374 23.1668C17.9971 23.3425 17.5279 23.6127 17.4161 23.9275C17.3042 24.2423 17.501 24.7392 17.97 25.3267C18.2414 25.6584 18.5395 25.9683 18.8615 26.2534C18.7955 25.6527 18.9739 25.0507 19.358 24.5778C19.7421 24.1049 20.301 23.7991 20.9137 23.7266C21.5264 23.6542 22.1437 23.8209 22.6317 24.1907C23.1198 24.5604 23.4395 25.1035 23.5215 25.7023C23.9184 28.5618 25.6452 30.2283 26.1268 30.6432C27.9223 31.457 29.7585 32.182 31.6283 32.8156C32.4253 33.087 33.2168 33.3394 34.0029 33.5729C37.0895 32.9898 39.2719 31.1638 40.494 28.1382C39.3288 27.5818 38.0877 27.0469 36.7945 26.5417C36.4987 27.0674 36.1511 27.5634 35.7564 28.0226ZM47.5976 27.6551C47.5584 27.6162 47.5116 27.5854 47.46 27.5644C47.4085 27.5434 47.3531 27.5327 47.2973 27.5329C46.7711 27.5323 46.2666 27.3274 45.8945 26.9631C45.5223 26.5989 45.313 26.105 45.3124 25.5898V20.1812C45.3123 19.8998 45.198 19.63 44.9948 19.4311C44.7915 19.2321 44.5159 19.1202 44.2285 19.1201C44.0815 19.1201 43.9361 19.1495 43.8011 19.2063C43.6661 19.263 43.5443 19.3461 43.4431 19.4504C43.3419 19.5547 43.2634 19.6781 43.2124 19.813C43.1614 19.9479 43.1389 20.0916 43.1464 20.2352C43.2581 22.4573 43.142 25.7262 41.9543 28.6808C41.2703 30.3825 40.3027 31.7828 39.0787 32.8425C38.3816 33.4444 37.5971 33.9414 36.7507 34.3175C38.5375 34.7701 40.3541 35.1014 42.1874 35.3091L42.8401 35.1913C44.585 34.9066 45.9102 33.8274 46.7789 31.9838C47.3589 30.7116 47.6785 29.3404 47.7196 27.9478C47.7201 27.8935 47.7096 27.8397 47.6887 27.7894C47.6677 27.7392 47.6368 27.6935 47.5976 27.6551ZM48.4069 34.4801C48.515 34.176 48.3361 33.7121 47.9194 33.1678C47.4582 34.0255 46.8279 34.7852 46.0651 35.4031C46.4086 35.3717 46.7495 35.3174 47.0854 35.2406C47.8253 35.0649 48.2945 34.795 48.4066 34.4805V34.48L48.4069 34.4801Z" fill="black"/>
<path d="M42.9687 9.94244C43.4323 9.94244 43.8854 10.077 44.2709 10.3291C44.6563 10.5812 44.9567 10.9396 45.1341 11.3588C45.3115 11.7781 45.3579 12.2394 45.2675 12.6845C45.177 13.1295 44.9538 13.5384 44.626 13.8592C44.2983 14.1801 43.8806 14.3986 43.426 14.4872C42.9713 14.5757 42.5001 14.5303 42.0718 14.3566C41.6436 14.1829 41.2775 13.8889 41.02 13.5116C40.7625 13.1342 40.625 12.6906 40.625 12.2369C40.6257 11.6285 40.8729 11.0454 41.3122 10.6152C41.7516 10.1851 42.3474 9.94313 42.9687 9.94244ZM42.9687 13.0017C43.1233 13.0017 43.2743 12.9568 43.4028 12.8728C43.5313 12.7887 43.6314 12.6693 43.6905 12.5295C43.7497 12.3898 43.7651 12.236 43.735 12.0876C43.7048 11.9393 43.6304 11.803 43.5212 11.6961C43.4119 11.5891 43.2727 11.5163 43.1212 11.4867C42.9696 11.4572 42.8125 11.4724 42.6698 11.5303C42.527 11.5882 42.405 11.6862 42.3192 11.8119C42.2333 11.9377 42.1875 12.0856 42.1875 12.2369C42.1877 12.4396 42.2701 12.634 42.4166 12.7774C42.563 12.9208 42.7616 13.0014 42.9687 13.0017Z" fill="black"/>
<path d="M35.1562 6.88321C35.1562 6.42942 35.2937 5.98582 35.5512 5.60851C35.8088 5.2312 36.1748 4.93712 36.6031 4.76346C37.0313 4.5898 37.5026 4.54436 37.9572 4.63289C38.4119 4.72142 38.8295 4.93994 39.1573 5.26082C39.4851 5.5817 39.7083 5.99053 39.7987 6.4356C39.8891 6.88067 39.8427 7.342 39.6653 7.76125C39.4879 8.1805 39.1875 8.53883 38.8021 8.79095C38.4167 9.04306 37.9635 9.17762 37.5 9.17762C36.8786 9.17694 36.2829 8.93499 35.8435 8.50485C35.4041 8.07471 35.1569 7.49152 35.1562 6.88321ZM38.2812 6.88321C38.2812 6.73195 38.2354 6.58408 38.1496 6.45831C38.0637 6.33254 37.9417 6.23452 37.799 6.17663C37.6562 6.11874 37.4991 6.1036 37.3476 6.13311C37.196 6.16262 37.0568 6.23546 36.9476 6.34242C36.8383 6.44938 36.7639 6.58565 36.7338 6.73401C36.7036 6.88237 36.7191 7.03614 36.7782 7.17589C36.8373 7.31564 36.9375 7.43509 37.066 7.51912C37.1944 7.60316 37.3455 7.64802 37.5 7.64802C37.7071 7.64779 37.9057 7.56714 38.0522 7.42376C38.1986 7.28038 38.281 7.08598 38.2812 6.88321Z" fill="black"/>
<path d="M39.8438 15.2961H38.2812V16.8257H39.8438V15.2961Z" fill="black"/>
<path d="M40.625 22.1793H39.0625V23.7089H40.625V22.1793Z" fill="black"/>
<path d="M35.9375 29.0625H34.375V30.5921H35.9375V29.0625Z" fill="black"/>
<path d="M48.4375 14.5312H46.875V16.0609H48.4375V14.5312Z" fill="black"/>
<path d="M41.8396 35.0525L40.9729 33.7798C42.8822 32.5337 42.9665 31.3856 42.9688 31.3373C42.9681 31.3502 42.9688 31.3569 42.9688 31.3569H44.5312C44.5312 31.5554 44.4558 33.3454 41.8396 35.0525Z" fill="black"/>
<path d="M34.1319 11.8247C33.8092 11.3468 33.444 10.8976 33.0406 10.4826L34.1462 9.40161C34.2512 9.50448 36.7188 11.95 36.7188 14.5312H35.1563C35.1563 13.7513 34.8021 12.8154 34.1319 11.8247Z" fill="black"/>
</g>
<defs>
<clipPath id="clip0">
<rect width="50" height="48.9474" fill="white" transform="matrix(-1 0 0 1 50 0)"/>
</clipPath>
</defs>
</svg>
