<svg width="23" height="18" viewBox="0 0 23 18" fill="none" xmlns="http://www.w3.org/2000/svg">
<g clip-path="url(#clip0)">
<path d="M1.38537 15.3957L6.36619 11.2571C5.51991 10.1377 5.02874 8.81458 5.02874 7.39468C5.02874 3.37759 8.94825 0.121521 13.783 0.121521C18.6177 0.121521 22.5369 3.37759 22.5369 7.39468C22.5369 11.4119 18.6179 14.6677 13.783 14.6677C11.9232 14.6677 10.2005 14.1846 8.78301 13.3637L3.86146 17.4531C3.51949 17.7369 3.07117 17.8783 2.62341 17.8783C2.1751 17.8783 1.72734 17.7369 1.38482 17.4531C0.701412 16.8847 0.701412 15.9639 1.38537 15.3957ZM13.783 12.3113C17.0508 12.3113 19.7002 10.1102 19.7002 7.39499C19.7002 4.67975 17.0508 2.47853 13.783 2.47853C10.515 2.47853 7.86578 4.67975 7.86578 7.39499C7.86578 10.1102 10.515 12.3113 13.783 12.3113Z" fill="#7C594A"/>
</g>
<defs>
<clipPath id="clip0">
<rect width="21.6646" height="18" fill="white" transform="matrix(-1 0 0 1 22.5369 0)"/>
</clipPath>
</defs>
</svg>
